<svg width="80" height="80" viewBox="0 0 80 80" fill="none" xmlns="http://www.w3.org/2000/svg">
<path d="M14.1711 8.5078C11.1765 10.3795 5 17.3046 5 18.9891V21.9837C5 25.9142 8.55615 29.096 11.738 29.096C15.6684 29.096 18.8503 25.9142 18.8503 22.1709C18.8503 25.9142 22.0321 29.096 25.9626 29.096C29.7059 29.096 32.7005 25.9142 32.7005 22.1709C32.7005 25.9142 36.0695 29.096 40 29.096C43.9305 29.096 47.2995 25.9142 47.2995 22.1709C47.2995 25.9142 50.2941 29.096 54.0374 29.096C57.9679 29.096 61.1497 25.9142 61.1497 22.1709C61.1497 25.9142 64.3316 29.096 68.262 29.096C71.4439 29.096 75 25.9142 75 21.9837V18.9891C75 17.3046 68.8235 10.3795 65.8289 8.5078C48.6163 7.83073 31.3837 7.83073 14.1711 8.5078ZM32.7005 27.4115L31.3904 29.096C30.5163 29.9812 29.4489 30.6517 28.2721 31.0549C27.0952 31.4581 25.841 31.5829 24.6077 31.4197C23.3745 31.2565 22.1959 30.8096 21.1644 30.1142C20.133 29.4187 19.2768 28.4936 18.6631 27.4115L17.3529 29.096C15.8556 30.5934 13.7968 31.5292 11.5508 31.5292L10.8021 31.342L10.4278 39.9516V43.3206C10.4278 50.0586 9.67914 65.4062 13.4225 69.1495C19.0374 70.4597 29.5187 71.0212 40 71.0212C50.4813 71.0212 60.9626 70.4597 66.5775 69.1495C70.3209 65.4062 69.5722 50.0586 69.5722 43.3206V39.9516L69.1979 31.342L68.4492 31.5292C66.2032 31.5292 64.1444 30.5934 62.6471 29.096L61.3369 27.4115L60.0267 29.096C59.1527 29.9812 58.0853 30.6517 56.9085 31.0549C55.7316 31.4581 54.4773 31.5829 53.2441 31.4197C52.0108 31.2565 50.8322 30.8096 49.8008 30.1142C48.7694 29.4187 47.9132 28.4936 47.2995 27.4115C46.5933 28.6736 45.5601 29.722 44.3085 30.4466C43.0569 31.1712 41.6333 31.5452 40.1872 31.5292H40H39.8128C38.3667 31.5452 36.9431 31.1712 35.6915 30.4466C34.4399 29.722 33.4067 28.6736 32.7005 27.4115ZM26.8984 34.8982C29.1444 34.8982 31.2032 34.8982 33.8235 37.7057L40 37.3313L46.1765 37.7057C48.7968 34.8982 50.8556 34.8982 53.1016 34.8982C54.2246 34.8982 58.5294 34.8982 61.5241 43.5078L64.8931 55.2992C67.3262 63.9089 64.1444 64.096 60.0267 64.096C54.2246 63.9089 50.8556 59.6041 50.8556 55.2992C43.6021 56.4575 36.2107 56.4575 28.9572 55.2992C29.1444 59.6041 25.7754 63.9089 19.9733 64.096C15.8556 64.096 12.6738 63.9089 15.107 55.2992L18.4759 43.5078C21.4706 34.8982 25.7754 34.8982 26.8984 34.8982ZM40 41.6361C40 41.6361 33.8235 47.4383 32.7005 49.4971L36.8182 49.3099V52.8661H43.1818V49.3099L47.2995 49.4971C46.1765 47.4383 40 41.6361 40 41.6361Z" fill="white"/>
</svg>
