<svg width="80" height="80" viewBox="0 0 80 80" fill="none" xmlns="http://www.w3.org/2000/svg">
<path fill-rule="evenodd" clip-rule="evenodd" d="M72.2335 21.4822C72.7866 22.4885 73.0644 23.6215 73.0391 24.768H73.0634V55.232C73.0856 56.3543 72.8187 57.4636 72.2882 58.4543C71.7146 59.4567 70.8728 60.2812 69.8562 60.8363C61.0483 65.8764 52.2456 70.9235 43.4478 75.9776C41.0736 77.3409 38.7754 77.2926 36.4194 75.9081C34.4779 74.7686 28.2216 71.1902 22.141 67.7123C17.2535 64.9169 12.4795 62.1864 10.1509 60.8394C9.13428 60.2842 8.29243 59.4597 7.71886 58.4574C7.18831 57.4666 6.92145 56.3573 6.94366 55.235V24.765C6.94366 22.2984 7.98942 20.4001 10.1417 19.1607C12.3751 17.8727 16.8572 15.3082 21.5314 12.6338C27.7942 9.05047 34.4019 5.26984 36.4072 4.09799C38.7632 2.71354 41.0614 2.66517 43.4326 4.02846C52.2385 9.0665 61.0413 14.1116 69.841 19.1637C70.8336 19.7086 71.6601 20.5095 72.2335 21.4822ZM35.0904 50.6379C36.9621 51.7348 39.0956 52.3119 41.2682 52.3089C43.2806 52.31 45.2617 51.8129 47.0327 50.8625C48.8037 49.9121 50.309 48.5382 51.4126 46.8648L61.8367 53.1311C59.5819 56.6405 56.4529 59.5107 52.7534 61.4629C49.054 63.4151 44.9098 64.3832 40.7231 64.2731C36.5365 64.163 32.4495 62.9784 28.8591 60.8344C25.2686 58.6905 22.2966 55.6599 20.2314 52.0369C20.1634 51.8993 20.089 51.7618 20.014 51.6231C19.9851 51.5698 19.9562 51.5163 19.9274 51.4625C17.1156 46.1079 16.4237 39.9 17.9882 34.0631C19.5527 28.2263 23.2601 23.1843 28.379 19.9315C33.498 16.6788 39.657 15.4515 45.6412 16.4917C51.6253 17.532 57.0003 20.7642 60.7058 25.5509C60.7563 25.6189 60.8079 25.6873 60.86 25.7562C60.9583 25.8866 61.0583 26.0191 61.1558 26.1555C61.4395 26.5464 61.7111 26.9495 61.9705 27.3646L51.3092 33.4707C51.2424 33.3679 51.1694 33.2682 51.0964 33.1684C51.0394 33.0946 50.9847 33.0216 50.9306 32.9494C50.8319 32.8177 50.7354 32.6889 50.6313 32.5639C48.7443 30.2815 46.081 28.7664 43.146 28.3056C40.2109 27.8448 37.2077 28.4702 34.7053 30.0634C32.2028 31.6566 30.3748 34.107 29.5674 36.9504C28.76 39.7939 29.0292 42.8331 30.3242 45.4925C30.4195 45.6899 30.5208 45.8834 30.6282 46.0728C31.6777 47.9643 33.2188 49.5409 35.0904 50.6379Z" fill="white"/>
</svg>
