<svg width="80" height="80" viewBox="0 0 80 80" fill="none" xmlns="http://www.w3.org/2000/svg">
<path d="M62.4 38.4H59.2V41.6H62.4V38.4Z" fill="white"/>
<path d="M70.2576 19.2048L43.3104 4.06401C41.2688 2.91681 38.7328 2.91681 36.6896 4.06401L9.74239 19.2048C7.68159 20.3632 6.39999 22.5296 6.39999 24.8592V55.1424C6.39999 57.4704 7.67999 59.6368 9.74239 60.7952L36.6896 75.9376C37.7104 76.5104 38.856 76.7984 40 76.7984C41.144 76.7984 42.2896 76.512 43.3104 75.9376L70.2576 60.7968C72.32 59.6352 73.6 57.4688 73.6 55.1408V24.8592C73.6 22.5296 72.3184 20.3632 70.2576 19.2048ZM40 59.2C29.4128 59.2 20.8 50.5872 20.8 40C20.8 29.4128 29.4128 20.8 40 20.8C46.048 20.8 51.64 23.608 55.2672 28.3856L48.2592 32.4432C46.1504 30.1392 43.1568 28.8 40 28.8C33.824 28.8 28.8 33.824 28.8 40C28.8 46.176 33.824 51.2 40 51.2C43.1568 51.2 46.1504 49.8608 48.2592 47.5568L55.2672 51.6144C51.64 56.392 46.048 59.2 40 59.2ZM68.8 38.4H65.6V41.6H68.8V44.8H65.6V48H62.4V44.8H59.2V48H56V44.8H52.8V41.6H56V38.4H52.8V35.2H56V32H59.2V35.2H62.4V32H65.6V35.2H68.8V38.4Z" fill="white"/>
</svg>
