<svg width="80" height="80" viewBox="0 0 80 80" fill="none" xmlns="http://www.w3.org/2000/svg">
<path d="M40.3156 40.0132C40.3156 33.5822 45.5292 28.3422 51.9866 28.3422C58.4176 28.3422 63.6577 33.5558 63.6577 40.0132C63.6577 46.4442 58.4441 51.6842 51.9866 51.6842C45.5557 51.6842 40.3156 46.4442 40.3156 40.0132Z" fill="white"/>
<path d="M17 63.3286C17 56.8976 22.2136 51.6576 28.671 51.6576H40.3421V63.3286C40.3421 69.7596 35.1285 74.9996 28.671 74.9996C22.2136 74.9996 17 69.7861 17 63.3286Z" fill="white"/>
<path d="M40.3156 5.02646V28.3421H51.9866C58.4176 28.3421 63.6577 23.1285 63.6577 16.671C63.6577 10.2401 58.4441 5 51.9866 5H40.3156V5.02646Z" fill="white"/>
<path d="M17 16.6979C17 23.1289 22.2136 28.3689 28.671 28.3689H40.3421V5.02686H28.671C22.2136 5.02686 17 10.2404 17 16.6979Z" fill="white"/>
<path d="M17 40.0132C17 46.4442 22.2136 51.6842 28.671 51.6842H40.3421V28.3422H28.671C22.2136 28.3422 17 33.5822 17 40.0132Z" fill="white"/>
</svg>
