<svg width="80" height="80" viewBox="0 0 80 80" fill="none" xmlns="http://www.w3.org/2000/svg">
<path fill-rule="evenodd" clip-rule="evenodd" d="M40 10C23.4043 10 10 23.7557 10 40.7865C10 54.3784 18.617 65.8414 30.4255 69.9354C31.8617 70.2629 32.5 69.2803 32.5 68.4615C32.5 67.8065 32.5 65.8414 32.5 63.2213C24.2021 65.0226 22.4468 59.1273 22.4468 59.1273C21.0106 55.5247 19.0957 54.7059 19.0957 54.7059C16.383 52.7408 19.2553 52.9045 19.2553 52.9045C22.2872 53.0683 23.883 56.0159 23.883 56.0159C26.5957 60.7649 30.9043 59.2911 32.6596 58.6361C32.9787 56.671 33.7766 55.3609 34.5745 54.5421C27.8723 53.5596 20.8511 50.9395 20.8511 39.1489C20.8511 35.71 21.9681 33.0899 23.883 30.961C23.5638 30.1422 22.6064 27.0308 24.2021 22.7731C24.2021 22.7731 26.7553 21.9543 32.5 25.8845C34.8936 25.2295 37.4468 24.902 40 24.902C42.5532 24.902 45.1064 25.2295 47.5 25.8845C53.2447 21.9543 55.7979 22.7731 55.7979 22.7731C57.3936 27.0308 56.4362 30.1422 56.117 30.961C58.0319 33.0899 59.1489 35.8737 59.1489 39.1489C59.1489 50.9395 52.1277 53.5596 45.4255 54.3784C46.5426 55.3609 47.5 57.1622 47.5 60.1099C47.5 64.2038 47.5 67.479 47.5 68.4615C47.5 69.2803 47.9787 70.2629 49.5745 69.9354C61.383 65.8414 70 54.3784 70 40.7865C70 23.7557 56.5957 10 40 10Z" fill="white"/>
</svg>
