<svg width="80" height="80" viewBox="0 0 80 80" fill="none" xmlns="http://www.w3.org/2000/svg">
<g clip-path="url(#clip0_506_87)">
<path d="M29.3486 61.8434C29.3486 61.8434 26.2552 63.618 31.55 64.2185C37.9646 64.9405 41.243 64.8369 48.3119 63.5171C48.3119 63.5171 50.1703 64.6667 52.7658 65.6624C36.9193 72.3623 16.902 65.2743 29.3486 61.8434Z" fill="white"/>
<path d="M27.4122 53.1005C27.4122 53.1005 23.9427 55.634 29.2415 56.1747C36.0937 56.8721 41.505 56.9291 50.8687 55.1504C50.8687 55.1504 52.1639 56.4457 54.2004 57.1541C35.041 62.681 13.7008 57.5899 27.4122 53.1005Z" fill="white"/>
<path d="M43.7364 38.2694C47.6409 42.7042 42.7105 46.6949 42.7105 46.6949C42.7105 46.6949 52.6249 41.6458 48.0716 35.3232C43.8191 29.4269 40.5579 26.4973 58.2125 16.3964C58.2125 16.3964 30.5006 23.2242 43.7364 38.2694Z" fill="white"/>
<path d="M64.6947 68.3103C64.6947 68.3103 66.9839 70.171 62.1736 71.6106C53.0268 74.3441 24.1035 75.1695 16.0687 71.7195C13.1804 70.4799 18.5968 68.7597 20.3006 68.3988C22.0775 68.0187 23.0929 68.0895 23.0929 68.0895C19.8808 65.8572 2.33136 72.4726 14.1786 74.3671C46.4879 79.5361 73.0753 72.0395 64.6947 68.3103Z" fill="white"/>
<path d="M30.8362 44.0417C30.8362 44.0417 16.1239 47.489 25.6262 48.7408C29.6383 49.2707 37.6364 49.1508 45.0865 48.535C51.1751 48.0283 57.2887 46.9511 57.2887 46.9511C57.2887 46.9511 55.1418 47.8581 53.5886 48.9044C38.6486 52.7806 9.78729 50.9773 18.0961 47.0124C25.1228 43.6616 30.8362 44.0417 30.8362 44.0417Z" fill="white"/>
<path d="M57.2281 58.5948C72.4153 50.8094 65.3933 43.3277 60.4921 44.3357C59.2908 44.5823 58.7551 44.7961 58.7551 44.7961C58.7551 44.7961 59.2011 44.1069 60.0529 43.8085C69.7491 40.4456 77.2061 53.727 56.9229 58.9872C56.9229 58.9874 57.1578 58.7801 57.2281 58.5948Z" fill="white"/>
<path d="M48.0716 0.0859375C48.0716 0.0859375 56.4826 8.3862 40.0943 21.1497C26.9525 31.3882 37.0975 37.2259 40.0888 43.8957C32.4178 37.0679 26.7882 31.0573 30.565 25.4633C36.1083 17.2517 51.4652 13.2704 48.0716 0.0859375Z" fill="white"/>
<path d="M32.3285 79.6915C46.9063 80.6121 69.2922 79.1808 69.8224 72.376C69.8224 72.376 68.8033 74.9556 57.7746 77.0043C45.3321 79.3142 29.9861 79.0445 20.8842 77.5641C20.8844 77.5639 22.7475 79.0854 32.3285 79.6915Z" fill="white"/>
</g>
<defs>
<clipPath id="clip0_506_87">
<rect width="60" height="80" fill="white" transform="translate(10)"/>
</clipPath>
</defs>
</svg>
