<svg width="80" height="80" viewBox="0 0 80 80" fill="none" xmlns="http://www.w3.org/2000/svg">
<path d="M17.375 16.6231C19.6144 18.4425 20.4546 18.3036 24.6597 18.0231L64.3045 15.6426C65.1451 15.6426 64.4459 14.8038 64.1659 14.6644L57.5813 9.90459C56.32 8.92517 54.6389 7.80347 51.4178 8.08405L13.0298 10.8839C11.6298 11.0228 11.3501 11.7227 11.9077 12.2838L17.375 16.6231ZM19.7552 25.8622V67.5755C19.7552 69.8171 20.8755 70.656 23.397 70.5173L66.9664 67.9963C69.4891 67.8576 69.7701 66.3152 69.7701 64.4944V23.0612C69.7701 21.243 69.0709 20.2625 67.5264 20.4024L21.9958 23.0612C20.3156 23.2023 19.7552 24.0428 19.7552 25.8622ZM62.7669 28.0998C63.0464 29.361 62.7669 30.6209 61.5035 30.7626L59.4043 31.1809V61.976C57.5813 62.9557 55.9008 63.5157 54.5003 63.5157C52.2579 63.5157 51.6963 62.8155 50.0166 60.7168L36.2851 39.1599V60.0171L40.6302 60.9973C40.6302 60.9973 40.6302 63.5157 37.1246 63.5157L27.4602 64.0763C27.1795 63.5157 27.4602 62.1173 28.4405 61.8368L30.9624 61.1381V33.5614L27.4608 33.2808C27.18 32.0197 27.8794 30.2015 29.8421 30.0603L40.2099 29.3615L54.5003 51.1989V31.8808L50.8567 31.4626C50.5771 29.921 51.6963 28.8015 53.0974 28.6627L62.7669 28.0998ZM9.8066 7.10464L49.7364 4.1642C54.64 3.74364 55.9013 4.02535 58.9835 6.26411L71.7291 15.2226C73.8325 16.7631 74.5333 17.1826 74.5333 18.8619V67.9963C74.5333 71.0752 73.4117 72.8965 69.4896 73.1749L23.1196 75.9755C20.1755 76.1157 18.7743 75.696 17.2326 73.7349L7.84618 61.5568C6.16426 59.3152 5.46484 57.6379 5.46484 55.6757V12.0022C5.46484 9.484 6.58687 7.38352 9.8066 7.10464Z" fill="white"/>
</svg>
