<svg width="80" height="80" viewBox="0 0 80 80" fill="none" xmlns="http://www.w3.org/2000/svg">
<path fill-rule="evenodd" clip-rule="evenodd" d="M16 25.3334H40V22.6667H25.3333V16C25.3333 16 25.3333 9.33337 40 9.33337C54.6667 9.33337 54.6667 16 54.6667 16C54.6667 16 54.7771 27.872 54.7219 31.936C54.6667 36 52 38.6667 47.9912 38.6667H32C26.6667 38.6667 22.6667 42.6667 22.6667 48V54.6667H16C16 54.6667 9.33334 54.6667 9.33334 40C9.33334 25.3334 16 25.3334 16 25.3334ZM34.6667 16C34.6667 17.4728 33.4728 18.6667 32 18.6667C30.5273 18.6667 29.3333 17.4728 29.3333 16C29.3333 14.5273 30.5273 13.3334 32 13.3334C33.4728 13.3334 34.6667 14.5273 34.6667 16Z" fill="white"/>
<path fill-rule="evenodd" clip-rule="evenodd" d="M64 54.6667H40V57.3334H54.6667V64C54.6667 64 54.6667 70.6667 40 70.6667C25.3333 70.6667 25.3333 64 25.3333 64V48C25.3333 44 28 41.3334 32 41.3334H48C53.3333 41.3334 57.3333 37.3334 57.3333 32V25.3334H64C64 25.3334 70.6667 25.3334 70.6667 40C70.6667 54.6667 64 54.6667 64 54.6667ZM50.6667 64C50.6667 65.4728 49.4728 66.6667 48 66.6667C46.5273 66.6667 45.3333 65.4728 45.3333 64C45.3333 62.5273 46.5273 61.3334 48 61.3334C49.4728 61.3334 50.6667 62.5273 50.6667 64Z" fill="white"/>
</svg>
